<svg width="231" height="109" viewBox="0 0 231 109" fill="none" xmlns="http://www.w3.org/2000/svg">
<path d="M84.2898 62.1811C84.2898 64.5051 82.3588 65.8706 79.1422 65.8706C75.1336 65.7356 71.3014 64.0884 68.3327 61.2244L68.2033 61.3619V61.2244C65.3732 63.9571 62.7985 65.7349 58.6811 65.7349C52.5049 65.7349 48.2581 60.2677 48.2581 53.7081V53.5706C48.2581 47.011 52.6326 41.6812 58.6811 41.6812C61.0227 41.7137 63.3042 42.4739 65.2437 43.8678C65.1317 44.4518 65.0883 45.0484 65.1143 45.6438V45.7812C65.1143 53.435 69.746 55.4841 77.0818 57.5368C83.1251 59.0379 84.2898 60.1302 84.2898 62.1811ZM102.17 -0.00214386V108.511H0V-0.00214386H102.17ZM92.1331 61.4975C92.1331 54.8059 88.0156 52.0677 80.6816 50.0168C74.5054 48.3765 72.9609 47.5572 72.9609 44.9529V44.8155C72.9609 42.902 74.5054 41.5348 77.5926 41.5348C81.0156 41.7734 84.2903 43.1076 86.9854 45.3616L91.1011 39.0842C87.3155 35.8397 82.5827 34.1 77.7186 34.1649C74.6779 34.0138 71.6806 34.9766 69.2284 36.8922C66.0238 34.9248 62.3713 33.9319 58.6708 34.022C54.0987 33.9369 49.6566 35.6394 46.1891 38.8057V34.7111H38.3391V58.2222L21.6259 34.5737H14.2833V72.8407H22.1367V48.5139L39.6333 72.8407H46.3168V68.8782C49.6799 71.9386 53.9787 73.5906 58.4069 73.5243C61.9714 73.66 65.4982 72.7119 68.5728 70.7916C71.8055 72.5343 75.3859 73.4245 79.0111 73.3869C86.7317 73.3869 92.2642 69.1495 92.1365 61.4975H92.1331ZM120.313 1.9113H116.71V106.597H120.313V1.9113ZM135.625 6.68948H132.923V28.2835H135.625V14.2112L138.584 24.0515V28.289H141.287V6.68948H138.584V17.0814L135.625 6.68948ZM148.621 28.2835V6.68948H145.92V28.2835H148.621ZM159.558 17.0705C160.099 17.0186 160.6 16.7488 160.958 16.3166C161.317 15.8843 161.507 15.3225 161.487 14.7466V10.6574C161.487 8.06036 160.329 6.69491 157.884 6.69491H153.254V28.289H158.787C159.142 28.3436 159.503 28.3233 159.851 28.2292C160.199 28.1351 160.525 27.969 160.812 27.7405C161.099 27.512 161.341 27.2255 161.523 26.8975C161.706 26.5696 161.826 26.2066 161.876 25.8293V19.541C161.876 18.3112 161.104 17.4901 159.688 17.0814H159.555L159.558 17.0705ZM155.957 9.29198H157.629C158.4 9.29198 158.787 9.83454 158.787 10.7949V14.2112C158.787 15.2964 158.276 15.7141 157.242 15.7141H155.955L155.957 9.29198ZM155.957 18.4487H157.501C158.523 18.4487 159.173 18.9912 159.173 19.9516V24.7352C159.173 25.4188 158.787 25.6919 158.152 25.6919H156.084V18.445L155.957 18.4487ZM172.556 17.0814C173.096 17.0299 173.598 16.7603 173.957 16.328C174.316 15.8957 174.506 15.3336 174.487 14.7574V10.6574C174.487 8.06036 173.329 6.69491 170.884 6.69491H166.252V28.289H171.784C172.139 28.3436 172.501 28.3233 172.849 28.2292C173.196 28.1351 173.523 27.969 173.81 27.7405C174.097 27.512 174.339 27.2255 174.521 26.8975C174.704 26.5696 174.823 26.2066 174.873 25.8293V19.541C174.873 18.3112 174.102 17.4901 172.685 17.0814H172.556ZM168.953 9.42762H170.625C171.396 9.42762 171.783 9.97018 171.783 10.9305V14.3487C171.783 15.4338 171.272 15.8516 170.238 15.8516H168.951L168.953 9.42762ZM168.953 18.4468H170.497C171.519 18.4468 172.169 18.9894 172.169 19.9497V24.7334C172.169 25.417 171.783 25.6901 171.148 25.6901H169.082V18.445L168.953 18.4468ZM185.681 25.6901H181.95V6.68948H179.248V28.2835H185.681V25.6901ZM196.104 28.2871V25.6919H192.114V18.445H195.588V15.8516H191.985V9.29198H195.975V6.68948H189.284V28.2835L196.104 28.2871ZM138.327 59.3182V60.548C138.327 61.3673 137.941 61.7778 137.306 61.7778H136.662C135.891 61.7778 135.64 61.3673 135.64 60.548V46.7379C135.64 45.9187 136.027 45.5081 136.662 45.5081H137.173C137.31 45.4649 137.456 45.4571 137.596 45.4854C137.737 45.5137 137.87 45.5772 137.983 45.6707C138.096 45.7642 138.187 45.885 138.247 46.0231C138.308 46.1612 138.336 46.3127 138.331 46.4649V48.9245H141.033V46.4649C141.033 44.0052 140.011 42.7754 137.816 42.7754H136.011C133.823 42.7754 132.795 44.0052 132.795 46.4649V60.6782C132.795 63.1378 133.817 64.3677 136.011 64.3677H137.684C139.872 64.3677 140.9 63.1378 140.9 60.6782V59.3182H138.327ZM150.938 64.3821C151.402 64.4391 151.872 64.3817 152.311 64.2143C152.75 64.0469 153.147 63.774 153.471 63.417C153.795 63.06 154.037 62.6284 154.178 62.1559C154.319 61.6834 154.355 61.1826 154.284 60.6927V46.4649C154.284 44.0052 153.263 42.7754 151.068 42.7754H148.486C146.298 42.7754 145.27 44.0052 145.27 46.4649V60.6782C145.27 63.1378 146.291 64.3677 148.616 64.3677L150.938 64.3821ZM147.849 60.5552V46.7379C147.83 46.594 147.839 46.4475 147.874 46.3071C147.909 46.1667 147.971 46.0353 148.055 45.9206C148.139 45.8059 148.244 45.7102 148.363 45.6394C148.483 45.5685 148.614 45.5239 148.75 45.5081H150.295C150.432 45.4649 150.577 45.4571 150.718 45.4854C150.859 45.5137 150.992 45.5772 151.105 45.6707C151.218 45.7642 151.309 45.885 151.369 46.0231C151.43 46.1612 151.458 46.3127 151.453 46.4649V60.5408C151.453 61.36 151.066 61.7706 150.431 61.7706H149.016C148.872 61.8054 148.722 61.8077 148.577 61.7775C148.432 61.7473 148.294 61.6851 148.173 61.595C148.052 61.5049 147.949 61.3889 147.873 61.2543C147.796 61.1198 147.747 60.9698 147.729 60.8139C147.858 60.8139 147.858 60.6764 147.858 60.5408L147.849 60.5552ZM161.746 42.7881H158.787V64.3821H161.489L161.232 50.3062L163.291 60.5571H165.344L167.275 50.3062L167.018 64.3821H169.721V42.7736H166.766L164.191 55.4841L161.746 42.7881ZM174.485 64.3821H177.187V56.5782H179.503C181.691 56.5782 182.72 55.3484 182.72 52.8888V46.4649C182.72 44.0052 181.698 42.7754 179.374 42.7754H174.356L174.485 64.3821ZM177.187 45.3924H178.732C178.869 45.3492 179.015 45.3414 179.156 45.3696C179.296 45.3979 179.429 45.4614 179.542 45.5549C179.655 45.6485 179.746 45.7693 179.806 45.9074C179.867 46.0455 179.895 46.1969 179.89 46.3491V52.6356C179.89 53.4549 179.503 53.8654 178.868 53.8654H177.196V45.3707L177.187 45.3924ZM193.015 42.7953V60.2894C193.015 61.2461 192.629 61.6566 191.857 61.6566H190.699C189.928 61.6566 189.541 61.2461 189.541 60.2894V42.7736H186.839V60.2677C186.839 63.0004 187.861 64.3677 190.056 64.3677H192.372C194.56 64.3677 195.718 63.0004 195.718 60.2677V42.7736L193.015 42.7953ZM207.299 45.3924V42.7736H199.448V45.3707H202.021V64.3604H204.724V45.3707L207.299 45.3924ZM217.722 64.3821V61.7706H213.732V54.6648H217.335V51.9303H213.732V45.3707H217.722V42.7736H211.031V64.3677L217.722 64.3821ZM221.839 64.3821H224.541V55.6215H226.213L228.015 64.3677H230.588L228.659 55.3394C229.817 54.7968 230.331 53.699 230.331 51.7856V46.4649C230.331 44.0052 229.301 42.7754 227.242 42.7754H221.963L221.839 64.3821ZM224.541 45.3924H226.343C227.114 45.3924 227.501 45.9349 227.501 46.8953V51.5414C227.501 52.6266 227.114 53.0443 226.343 53.0443H224.541V45.3924ZM140.773 84.7301V82.5436C140.773 80.0839 139.751 78.8541 137.556 78.8541H135.885C133.697 78.8541 132.669 80.0839 132.669 82.5436V86.9166C132.648 87.3767 132.692 87.8375 132.798 88.2839C132.928 88.557 133.055 88.9675 133.309 89.1032C133.721 89.4062 134.151 89.6799 134.596 89.9224L137.169 91.4253C137.426 91.5628 137.68 91.8359 137.941 91.9679C138.083 92.217 138.171 92.497 138.198 92.7872V96.4766C138.198 97.2959 137.811 97.7064 137.176 97.7064H136.665C136.528 97.7496 136.383 97.7574 136.242 97.7292C136.101 97.7009 135.968 97.6374 135.855 97.5439C135.742 97.4503 135.651 97.3295 135.591 97.1914C135.53 97.0533 135.502 96.9019 135.507 96.7497V95.254H132.538V96.3392C132.538 98.9362 133.559 100.302 135.754 100.302H137.427C137.89 100.359 138.36 100.301 138.799 100.134C139.239 99.9664 139.636 99.6936 139.959 99.3366C140.283 98.9795 140.525 98.548 140.666 98.0754C140.807 97.6029 140.844 97.1022 140.773 96.6122V92.1108C140.824 91.594 140.735 91.0723 140.515 90.6079C140.378 90.3546 140.206 90.1243 140.005 89.9242L138.847 89.105L136.274 87.6021C136.017 87.4646 135.763 87.1915 135.502 87.0595C135.36 86.8104 135.272 86.5303 135.245 86.2402V82.681C135.245 81.8617 135.632 81.3137 136.403 81.3137H136.79C136.926 81.2834 137.067 81.2851 137.203 81.3185C137.339 81.352 137.467 81.4164 137.577 81.5075C137.687 81.5985 137.777 81.7139 137.841 81.8456C137.905 81.9774 137.942 82.1224 137.948 82.2705V84.7301H140.773ZM150.809 100.584C151.273 100.641 151.742 100.583 152.182 100.416C152.621 100.249 153.018 99.9757 153.342 99.6187C153.666 99.2617 153.907 98.8301 154.049 98.3576C154.19 97.885 154.226 97.3843 154.155 96.8944V82.5436C154.155 80.0839 153.133 78.8541 150.938 78.8541H148.364C146.176 78.8541 145.147 80.0839 145.147 82.5436V96.7551C145.076 97.2451 145.113 97.7458 145.254 98.2183C145.395 98.6908 145.637 99.1224 145.96 99.4794C146.284 99.8365 146.681 100.109 147.12 100.277C147.56 100.444 148.03 100.502 148.493 100.445L150.809 100.584ZM147.72 96.6213V82.8166C147.701 82.6727 147.709 82.5262 147.745 82.3858C147.78 82.2454 147.841 82.114 147.925 81.9992C148.009 81.8845 148.114 81.7889 148.234 81.7181C148.353 81.6473 148.485 81.6026 148.621 81.5868H150.165C150.303 81.5436 150.448 81.5358 150.589 81.5641C150.73 81.5924 150.862 81.6559 150.976 81.7494C151.089 81.8429 151.179 81.9637 151.24 82.1018C151.3 82.2399 151.329 82.3914 151.323 82.5436V96.6195C151.323 97.4387 150.937 97.8493 150.302 97.8493H148.887C148.749 97.8925 148.604 97.9003 148.463 97.872C148.322 97.8438 148.189 97.7802 148.076 97.6867C147.963 97.5932 147.872 97.4724 147.812 97.3343C147.752 97.1962 147.723 97.0448 147.729 96.8926C147.729 96.7551 147.729 96.7551 147.729 96.6195L147.72 96.6213ZM164.067 95.5362V96.766C164.067 97.5852 163.681 97.9958 163.046 97.9958H162.402C161.63 97.9958 161.38 97.5852 161.38 96.766V82.8166C161.38 81.9974 161.767 81.5868 162.402 81.5868H162.913C163.05 81.5436 163.195 81.5358 163.336 81.5641C163.477 81.5924 163.61 81.6559 163.723 81.7494C163.836 81.8429 163.927 81.9637 163.987 82.1018C164.048 82.2399 164.076 82.3914 164.071 82.5436V84.9996H166.773V82.5399C166.773 80.0803 165.751 78.8505 163.556 78.8505H161.746C159.558 78.8505 158.53 80.0803 158.53 82.5399V96.7551C158.53 99.2147 159.551 100.445 161.746 100.445H163.548C165.736 100.445 166.764 99.2147 166.764 96.7551V95.3879L164.067 95.5362ZM173.719 100.6V78.8505H171.016V100.445L173.719 100.6ZM185.17 100.6V97.9867H181.181V90.7435H184.784V88.1482H181.181V81.5868H185.17V78.9916H178.48V100.586L185.17 100.6ZM196.239 81.6103V78.8505H188.261V81.4476H190.834V100.437H193.536V81.4476L196.239 81.6103ZM204.989 92.543L208.336 78.8758H205.633L203.828 88.2839H203.699L201.637 78.8505H198.934L202.28 92.5177V100.445H204.983L204.989 92.543Z" fill="white"/>
</svg>
